<svg width="14" height="14" viewBox="0 0 14 14" fill="none" xmlns="http://www.w3.org/2000/svg"><path d="M10.7123 10.1293L7 13.8416L3.28769 10.1293C1.23744 8.07903 1.23744 4.75494 3.28769 2.70468C5.33794 0.654429 8.66203 0.654429 10.7123 2.70468C12.7626 4.75494 12.7626 8.07903 10.7123 10.1293ZM7 7.58366C7.64435 7.58366 8.16667 7.06134 8.16667 6.41699C8.16667 5.77266 7.64435 5.25033 7 5.25033C6.35565 5.25033 5.83333 5.77266 5.83333 6.41699C5.83333 7.06134 6.35565 7.58366 7 7.58366Z" fill="#E92A3A"/><path d="M9.33341 6.41634C9.33341 7.70504 8.28878 8.74967 7.00008 8.74967C5.71138 8.74967 4.66675 7.70504 4.66675 6.41634C4.66675 5.12768 5.71138 4.08301 7.00008 4.08301C8.28878 4.08301 9.33341 5.12768 9.33341 6.41634Z" fill="#F9F9FB"/></svg>