<svg width="64" height="64" viewBox="0 0 64 64" fill="none" xmlns="http://www.w3.org/2000/svg"><g filter="url(#filter0_iiii_0_829)"><rect width="64" height="64" rx="32" fill="url(#paint0_linear_0_829)"/><g clip-path="url(#clip0_0_829)"><path d="M32.0001 42.667C34.8291 42.667 37.5422 41.5432 39.5426 39.5428C41.5429 37.5424 42.6667 34.8293 42.6667 32.0003C42.6667 29.1713 41.5429 26.4582 39.5426 24.4579C37.5422 22.4575 34.8291 21.3337 32.0001 21.3337C29.1711 21.3337 26.458 22.4575 24.4576 24.4579C22.4572 26.4582 21.3334 29.1713 21.3334 32.0003C21.3334 34.8293 22.4572 37.5424 24.4576 39.5428C26.458 41.5432 29.1711 42.667 32.0001 42.667ZM32.0001 45.3337C24.6361 45.3337 18.6667 39.3643 18.6667 32.0003C18.6667 24.6363 24.6361 18.667 32.0001 18.667C39.3641 18.667 45.3334 24.6363 45.3334 32.0003C45.3334 39.3643 39.3641 45.3337 32.0001 45.3337ZM27.8534 33.5603L24.5227 32.5217C23.8027 32.3017 23.7987 31.8057 24.6841 31.4497L37.6614 26.4363C38.4147 26.1297 38.8414 26.5177 38.5974 27.4897L36.3881 37.9163C36.2334 38.659 35.7867 38.8363 35.1667 38.4937L31.7654 35.9763L30.1801 37.507C30.0174 37.6643 29.8854 37.799 29.6347 37.8323C29.3854 37.867 29.1801 37.7923 29.0294 37.379L27.8694 33.551L27.8534 33.5603Z" fill="#fff"/></g></g><defs><linearGradient id="paint0_linear_0_829" x1="32" y1="0" x2="32" y2="64" gradientUnits="userSpaceOnUse"><stop stop-color="#00E3D8"/><stop offset="1" stop-color="#009EF6"/></linearGradient><clipPath id="clip0_0_829"><path fill="#fff" transform="translate(16 16)" d="M0 0H32V32H0z"/></clipPath><filter id="filter0_iiii_0_829" x="0" y="-2" width="64" height="70" filterUnits="userSpaceOnUse" color-interpolation-filters="sRGB"><feFlood flood-opacity="0" result="BackgroundImageFix"/><feBlend in="SourceGraphic" in2="BackgroundImageFix" result="shape"/><feColorMatrix in="SourceAlpha" values="0 0 0 0 0 0 0 0 0 0 0 0 0 0 0 0 0 0 127 0" result="hardAlpha"/><feOffset dy="4"/><feGaussianBlur stdDeviation="6"/><feComposite in2="hardAlpha" operator="arithmetic" k2="-1" k3="1"/><feColorMatrix values="0 0 0 0 0.447059 0 0 0 0 0.834118 0 0 0 0 1 0 0 0 1 0"/><feBlend in2="shape" result="effect1_innerShadow_0_829"/><feColorMatrix in="SourceAlpha" values="0 0 0 0 0 0 0 0 0 0 0 0 0 0 0 0 0 0 127 0" result="hardAlpha"/><feOffset dy="1"/><feGaussianBlur stdDeviation="1"/><feComposite in2="hardAlpha" operator="arithmetic" k2="-1" k3="1"/><feColorMatrix values="0 0 0 0 1 0 0 0 0 1 0 0 0 0 1 0 0 0 0.24 0"/><feBlend in2="effect1_innerShadow_0_829" result="effect2_innerShadow_0_829"/><feColorMatrix in="SourceAlpha" values="0 0 0 0 0 0 0 0 0 0 0 0 0 0 0 0 0 0 127 0" result="hardAlpha"/><feOffset dy="-2"/><feGaussianBlur stdDeviation="1"/><feComposite in2="hardAlpha" operator="arithmetic" k2="-1" k3="1"/><feColorMatrix values="0 0 0 0 1 0 0 0 0 1 0 0 0 0 1 0 0 0 0.12 0"/><feBlend in2="effect2_innerShadow_0_829" result="effect3_innerShadow_0_829"/><feColorMatrix in="SourceAlpha" values="0 0 0 0 0 0 0 0 0 0 0 0 0 0 0 0 0 0 127 0" result="hardAlpha"/><feOffset dy="-1"/><feGaussianBlur stdDeviation=".5"/><feComposite in2="hardAlpha" operator="arithmetic" k2="-1" k3="1"/><feColorMatrix values="0 0 0 0 1 0 0 0 0 1 0 0 0 0 1 0 0 0 0.08 0"/><feBlend in2="effect3_innerShadow_0_829" result="effect4_innerShadow_0_829"/></filter></defs></svg>