<svg width="57" height="56" viewBox="0 0 57 56" fill="none" xmlns="http://www.w3.org/2000/svg"><path d="M40.1668 27.9998C41.4555 27.9998 42.5002 29.0445 42.5002 30.3332V51.3332H14.5003V30.3332C14.5003 29.0445 15.5449 27.9998 16.8336 27.9998H40.1668ZM23.8335 32.6665H19.1669V37.3332H23.8335V32.6665ZM28.5002 13.9998C33.9812 13.9998 38.7262 17.1493 41.0248 21.7372L36.8502 23.825C35.3179 20.7663 32.1544 18.6665 28.5002 18.6665C24.8462 18.6665 21.6827 20.7663 20.1504 23.825L15.9757 21.7372C18.2742 17.1493 23.0194 13.9998 28.5002 13.9998ZM28.5002 4.6665C37.6356 4.6665 45.5447 9.91629 49.3753 17.5635L45.201 19.6521C42.1366 13.5336 35.8091 9.33317 28.5002 9.33317C21.1915 9.33317 14.8638 13.5336 11.7996 19.6521L7.62524 17.5635C11.4559 9.91629 19.365 4.6665 28.5002 4.6665Z" fill="#000"/><path d="M40.1668 27.9998C41.4555 27.9998 42.5002 29.0445 42.5002 30.3332V51.3332H14.5003V30.3332C14.5003 29.0445 15.5449 27.9998 16.8336 27.9998H40.1668ZM23.8335 32.6665H19.1669V37.3332H23.8335V32.6665ZM28.5002 13.9998C33.9812 13.9998 38.7262 17.1493 41.0248 21.7372L36.8502 23.825C35.3179 20.7663 32.1544 18.6665 28.5002 18.6665C24.8462 18.6665 21.6827 20.7663 20.1504 23.825L15.9757 21.7372C18.2742 17.1493 23.0194 13.9998 28.5002 13.9998ZM28.5002 4.6665C37.6356 4.6665 45.5447 9.91629 49.3753 17.5635L45.201 19.6521C42.1366 13.5336 35.8091 9.33317 28.5002 9.33317C21.1915 9.33317 14.8638 13.5336 11.7996 19.6521L7.62524 17.5635C11.4559 9.91629 19.365 4.6665 28.5002 4.6665Z" fill="url(#paint0_linear_0_555)"/><defs><linearGradient id="paint0_linear_0_555" x1="28.5" y1="4.667" x2="28.5" y2="51.333" gradientUnits="userSpaceOnUse"><stop stop-color="#00E3D8"/><stop offset="1" stop-color="#009EF6"/></linearGradient></defs></svg>