<svg width="57" height="56" viewBox="0 0 57 56" fill="none" xmlns="http://www.w3.org/2000/svg"><path d="M37.8334 37.3332C41.6995 37.3332 44.8334 40.4671 44.8334 44.3332C44.8334 48.1993 41.6995 51.3332 37.8334 51.3332C33.9673 51.3332 30.8334 48.1993 30.8334 44.3332C30.8334 40.4671 33.9673 37.3332 37.8334 37.3332ZM14.5001 27.9998C19.6547 27.9998 23.8334 32.1786 23.8334 37.3332C23.8334 42.4877 19.6547 46.6665 14.5001 46.6665C9.34542 46.6665 5.16675 42.4877 5.16675 37.3332C5.16675 32.1786 9.34542 27.9998 14.5001 27.9998ZM34.3334 4.6665C41.4211 4.6665 47.1667 10.4122 47.1667 17.4998C47.1667 24.5876 41.4211 30.3332 34.3334 30.3332C27.2457 30.3332 21.5001 24.5876 21.5001 17.4998C21.5001 10.4122 27.2457 4.6665 34.3334 4.6665Z" fill="#000"/><path d="M37.8334 37.3332C41.6995 37.3332 44.8334 40.4671 44.8334 44.3332C44.8334 48.1993 41.6995 51.3332 37.8334 51.3332C33.9673 51.3332 30.8334 48.1993 30.8334 44.3332C30.8334 40.4671 33.9673 37.3332 37.8334 37.3332ZM14.5001 27.9998C19.6547 27.9998 23.8334 32.1786 23.8334 37.3332C23.8334 42.4877 19.6547 46.6665 14.5001 46.6665C9.34542 46.6665 5.16675 42.4877 5.16675 37.3332C5.16675 32.1786 9.34542 27.9998 14.5001 27.9998ZM34.3334 4.6665C41.4211 4.6665 47.1667 10.4122 47.1667 17.4998C47.1667 24.5876 41.4211 30.3332 34.3334 30.3332C27.2457 30.3332 21.5001 24.5876 21.5001 17.4998C21.5001 10.4122 27.2457 4.6665 34.3334 4.6665Z" fill="url(#paint0_linear_0_561)"/><defs><linearGradient id="paint0_linear_0_561" x1="26.167" y1="4.667" x2="26.167" y2="51.333" gradientUnits="userSpaceOnUse"><stop stop-color="#00E3D8"/><stop offset="1" stop-color="#009EF6"/></linearGradient></defs></svg>