<svg width="57" height="56" viewBox="0 0 57 56" fill="none" xmlns="http://www.w3.org/2000/svg"><path d="M48.4652 8.03494C52.1101 11.6798 52.1101 17.5894 48.4652 21.2343L29.3314 40.3681C27.8327 41.8668 25.8688 42.8106 23.7624 43.0446L15.8789 43.918L10.5172 49.2828C9.60595 50.194 8.12858 50.194 7.21735 49.2828C6.30613 48.3716 6.30613 46.8942 7.21735 45.983L12.5796 40.6187L13.4555 32.7378C13.6895 30.6313 14.6334 28.6673 16.1321 27.1689L35.2658 8.03494C38.9107 4.39004 44.8203 4.39004 48.4652 8.03494ZM27.0163 29.4838L23.7165 32.7836L28.6662 37.7335L31.966 34.4337L27.0163 29.4838ZM33.6159 22.8842L30.3161 26.184L35.2658 31.1337L38.5658 27.8339L33.6159 22.8842ZM40.2157 16.2845L36.9159 19.5843L41.8656 24.5341L45.1654 21.2343L40.2157 16.2845Z" fill="#000"/><path d="M48.4652 8.03494C52.1101 11.6798 52.1101 17.5894 48.4652 21.2343L29.3314 40.3681C27.8327 41.8668 25.8688 42.8106 23.7624 43.0446L15.8789 43.918L10.5172 49.2828C9.60595 50.194 8.12858 50.194 7.21735 49.2828C6.30613 48.3716 6.30613 46.8942 7.21735 45.983L12.5796 40.6187L13.4555 32.7378C13.6895 30.6313 14.6334 28.6673 16.1321 27.1689L35.2658 8.03494C38.9107 4.39004 44.8203 4.39004 48.4652 8.03494ZM27.0163 29.4838L23.7165 32.7836L28.6662 37.7335L31.966 34.4337L27.0163 29.4838ZM33.6159 22.8842L30.3161 26.184L35.2658 31.1337L38.5658 27.8339L33.6159 22.8842ZM40.2157 16.2845L36.9159 19.5843L41.8656 24.5341L45.1654 21.2343L40.2157 16.2845Z" fill="url(#paint0_linear_0_567)"/><defs><linearGradient id="paint0_linear_0_567" x1="28.866" y1="5.301" x2="28.866" y2="49.966" gradientUnits="userSpaceOnUse"><stop stop-color="#00E3D8"/><stop offset="1" stop-color="#009EF6"/></linearGradient></defs></svg>