<svg width="57" height="56" viewBox="0 0 57 56" fill="none" xmlns="http://www.w3.org/2000/svg"><path d="M25 39.6665H9.83329V34.9998H25C29.5103 34.9998 33.1666 38.6562 33.1666 43.1665C33.1666 47.6768 29.5103 51.3332 25 51.3332C21.499 51.3332 18.5125 49.1303 17.3512 46.0349L21.7219 44.3957C22.2196 45.7224 23.4995 46.6665 25 46.6665C26.9329 46.6665 28.5 45.0994 28.5 43.1665C28.5 41.2336 26.9329 39.6665 25 39.6665ZM12.1666 25.6665H43.6666C48.177 25.6665 51.8333 29.3228 51.8333 33.8332C51.8333 38.3435 48.177 41.9998 43.6666 41.9998C40.1657 41.9998 37.1793 39.7969 36.018 36.7015L40.3885 35.0624C40.8862 36.3891 42.1663 37.3332 43.6666 37.3332C45.5996 37.3332 47.1666 35.7661 47.1666 33.8332C47.1666 31.9002 45.5996 30.3332 43.6666 30.3332H12.1666C8.30064 30.3332 5.16663 27.1993 5.16663 23.3332C5.16663 19.4672 8.30064 16.3332 12.1666 16.3332H32C33.9329 16.3332 35.5 14.7662 35.5 12.8332C35.5 10.9002 33.9329 9.33317 32 9.33317C30.4996 9.33317 29.2196 10.2773 28.7219 11.6039L24.3513 9.96487C25.5126 6.8695 28.499 4.6665 32 4.6665C36.5103 4.6665 40.1666 8.32284 40.1666 12.8332C40.1666 17.3435 36.5103 20.9998 32 20.9998H12.1666C10.878 20.9998 9.83329 22.0445 9.83329 23.3332C9.83329 24.6219 10.878 25.6665 12.1666 25.6665Z" fill="#000"/><path d="M25 39.6665H9.83329V34.9998H25C29.5103 34.9998 33.1666 38.6562 33.1666 43.1665C33.1666 47.6768 29.5103 51.3332 25 51.3332C21.499 51.3332 18.5125 49.1303 17.3512 46.0349L21.7219 44.3957C22.2196 45.7224 23.4995 46.6665 25 46.6665C26.9329 46.6665 28.5 45.0994 28.5 43.1665C28.5 41.2336 26.9329 39.6665 25 39.6665ZM12.1666 25.6665H43.6666C48.177 25.6665 51.8333 29.3228 51.8333 33.8332C51.8333 38.3435 48.177 41.9998 43.6666 41.9998C40.1657 41.9998 37.1793 39.7969 36.018 36.7015L40.3885 35.0624C40.8862 36.3891 42.1663 37.3332 43.6666 37.3332C45.5996 37.3332 47.1666 35.7661 47.1666 33.8332C47.1666 31.9002 45.5996 30.3332 43.6666 30.3332H12.1666C8.30064 30.3332 5.16663 27.1993 5.16663 23.3332C5.16663 19.4672 8.30064 16.3332 12.1666 16.3332H32C33.9329 16.3332 35.5 14.7662 35.5 12.8332C35.5 10.9002 33.9329 9.33317 32 9.33317C30.4996 9.33317 29.2196 10.2773 28.7219 11.6039L24.3513 9.96487C25.5126 6.8695 28.499 4.6665 32 4.6665C36.5103 4.6665 40.1666 8.32284 40.1666 12.8332C40.1666 17.3435 36.5103 20.9998 32 20.9998H12.1666C10.878 20.9998 9.83329 22.0445 9.83329 23.3332C9.83329 24.6219 10.878 25.6665 12.1666 25.6665Z" fill="url(#paint0_linear_0_573)"/><defs><linearGradient id="paint0_linear_0_573" x1="28.5" y1="4.667" x2="28.5" y2="51.333" gradientUnits="userSpaceOnUse"><stop stop-color="#00E3D8"/><stop offset="1" stop-color="#009EF6"/></linearGradient></defs></svg>