<svg width="64" height="64" viewBox="0 0 64 64" fill="none" xmlns="http://www.w3.org/2000/svg"><rect width="64" height="64" rx="32" fill="url(#paint0_linear_0_822)"/><rect width="64" height="64" rx="32" fill="url(#paint1_linear_0_822)" fill-opacity=".4"/><g filter="url(#filter0_dd_0_822)"><path d="M25.6708 40.659L26.6361 41.223C28.264 42.1724 30.1156 42.6709 32.0001 42.667C34.1098 42.667 36.1721 42.0414 37.9262 40.8693C39.6803 39.6973 41.0475 38.0314 41.8548 36.0823C42.6622 34.1332 42.8734 31.9885 42.4618 29.9194C42.0502 27.8502 41.0343 25.9496 39.5426 24.4579C38.0508 22.9661 36.1502 21.9502 34.0811 21.5386C32.0119 21.127 29.8672 21.3383 27.9181 22.1456C25.9691 22.9529 24.3032 24.3201 23.1311 26.0742C21.959 27.8284 21.3334 29.8907 21.3334 32.0003C21.3334 33.915 21.8361 35.751 22.7788 37.3657L23.3414 38.331L22.4708 41.5323L25.6708 40.659ZM18.6721 45.3337L20.4748 38.7097C19.2869 36.6735 18.6629 34.3576 18.6668 32.0003C18.6668 24.6363 24.6361 18.667 32.0001 18.667C39.3641 18.667 45.3334 24.6363 45.3334 32.0003C45.3334 39.3643 39.3641 45.3337 32.0001 45.3337C29.6438 45.3375 27.329 44.7139 25.2934 43.527L18.6721 45.3337ZM27.1881 25.7443C27.3668 25.731 27.5468 25.731 27.7254 25.739C27.7974 25.7443 27.8694 25.7523 27.9414 25.7603C28.1534 25.7843 28.3868 25.9137 28.4654 26.0923C28.8628 26.9937 29.2494 27.9017 29.6228 28.8123C29.7054 29.015 29.6561 29.275 29.4988 29.5283C29.3906 29.6996 29.2735 29.8652 29.1481 30.0243C28.9974 30.2177 28.6734 30.5723 28.6734 30.5723C28.6734 30.5723 28.5414 30.7297 28.5921 30.9257C28.6108 31.0003 28.6721 31.1083 28.7281 31.199L28.8068 31.3257C29.1481 31.895 29.6068 32.4723 30.1668 33.0163C30.3268 33.171 30.4828 33.3297 30.6508 33.4777C31.2748 34.0283 31.9814 34.4777 32.7441 34.811L32.7508 34.8137C32.8641 34.863 32.9214 34.8897 33.0868 34.9603C33.1694 34.995 33.2548 35.0257 33.3414 35.0483C33.431 35.0711 33.5253 35.0668 33.6124 35.036C33.6995 35.0051 33.7755 34.9491 33.8308 34.875C34.7961 33.7057 34.8841 33.6297 34.8921 33.6297V33.6323C34.9592 33.5698 35.0388 33.5223 35.1258 33.4931C35.2127 33.4639 35.3049 33.4536 35.3961 33.463C35.4761 33.4683 35.5574 33.483 35.6321 33.5163C36.3401 33.8403 37.4988 34.3457 37.4988 34.3457L38.2748 34.6937C38.4054 34.7563 38.5241 34.9043 38.5281 35.047C38.5334 35.1363 38.5414 35.2803 38.5108 35.5443C38.4681 35.8897 38.3641 36.3043 38.2601 36.5217C38.1889 36.67 38.0943 36.8059 37.9801 36.9243C37.8456 37.0656 37.6983 37.1941 37.5401 37.3083C37.4854 37.3495 37.4298 37.3895 37.3734 37.4283C37.2076 37.5335 37.0372 37.6314 36.8628 37.7217C36.5195 37.904 36.1403 38.0087 35.7521 38.0283C35.5054 38.0417 35.2588 38.0603 35.0108 38.047C35.0001 38.047 34.2534 37.931 34.2534 37.931C32.3578 37.4324 30.6046 36.4983 29.1334 35.203C28.8321 34.9377 28.5534 34.6523 28.2681 34.3683C27.0814 33.1883 26.1854 31.915 25.6414 30.7123C25.363 30.122 25.2126 29.4795 25.2001 28.827C25.1946 28.0175 25.4592 27.2292 25.9521 26.587C26.0494 26.4617 26.1414 26.331 26.3001 26.1803C26.4694 26.0203 26.5761 25.935 26.6921 25.8763C26.8463 25.799 27.0146 25.7537 27.1868 25.743L27.1881 25.7443Z" fill="#fff"/></g><defs><linearGradient id="paint0_linear_0_822" x1="32" y1="0" x2="32" y2="64" gradientUnits="userSpaceOnUse"><stop stop-color="#43EB61"/><stop offset="1" stop-color="#25CA43"/></linearGradient><linearGradient id="paint1_linear_0_822" x1="8" y1="0" x2="32" y2="64" gradientUnits="userSpaceOnUse"><stop stop-color="#fff"/><stop offset="1" stop-color="#22CD44" stop-opacity="0"/></linearGradient><filter id="filter0_dd_0_822" x="6.667" y="4.667" width="50.667" height="50.667" filterUnits="userSpaceOnUse" color-interpolation-filters="sRGB"><feFlood flood-opacity="0" result="BackgroundImageFix"/><feColorMatrix in="SourceAlpha" values="0 0 0 0 0 0 0 0 0 0 0 0 0 0 0 0 0 0 127 0" result="hardAlpha"/><feOffset dy="2"/><feGaussianBlur stdDeviation="1"/><feComposite in2="hardAlpha" operator="out"/><feColorMatrix values="0 0 0 0 0 0 0 0 0 0 0 0 0 0 0 0 0 0 0.08 0"/><feBlend in2="BackgroundImageFix" result="effect1_dropShadow_0_822"/><feColorMatrix in="SourceAlpha" values="0 0 0 0 0 0 0 0 0 0 0 0 0 0 0 0 0 0 127 0" result="hardAlpha"/><feOffset dy="-2"/><feGaussianBlur stdDeviation="6"/><feComposite in2="hardAlpha" operator="out"/><feColorMatrix values="0 0 0 0 1 0 0 0 0 1 0 0 0 0 1 0 0 0 0.2 0"/><feBlend in2="effect1_dropShadow_0_822" result="effect2_dropShadow_0_822"/><feBlend in="SourceGraphic" in2="effect2_dropShadow_0_822" result="shape"/></filter></defs></svg>