<svg width="40" height="40" viewBox="0 0 40 40" fill="none" xmlns="http://www.w3.org/2000/svg"><path d="M22.6509 20L30.0728 12.5781C30.425 12.2265 30.6232 11.7494 30.6236 11.2517C30.624 10.754 30.4267 10.2765 30.0751 9.92424C29.7235 9.572 29.2464 9.37386 28.7487 9.37342C28.251 9.37298 27.7735 9.57027 27.4212 9.92189L19.9993 17.3438L12.5775 9.92189C12.2252 9.56965 11.7475 9.37177 11.2493 9.37177C10.7512 9.37177 10.2735 9.56965 9.92122 9.92189C9.56898 10.2741 9.37109 10.7519 9.37109 11.25C9.37109 11.7482 9.56898 12.2259 9.92122 12.5781L17.3431 20L9.92122 27.4219C9.56898 27.7741 9.37109 28.2519 9.37109 28.75C9.37109 29.2482 9.56898 29.7259 9.92122 30.0781C10.2735 30.4304 10.7512 30.6283 11.2493 30.6283C11.7475 30.6283 12.2252 30.4304 12.5775 30.0781L19.9993 22.6563L27.4212 30.0781C27.7735 30.4304 28.2512 30.6283 28.7493 30.6283C29.2475 30.6283 29.7252 30.4304 30.0775 30.0781C30.4297 29.7259 30.6276 29.2482 30.6276 28.75C30.6276 28.2519 30.4297 27.7741 30.0775 27.4219L22.6509 20Z" fill="#282828" fill-opacity=".3"/></svg>