<svg width="235" height="181" viewBox="0 0 235 181" fill="none" xmlns="http://www.w3.org/2000/svg"><path d="M75.3475 130.341L199.697 5.80466C203.561 1.93488 208.479 0 214.451 0C220.422 0 225.34 1.93488 229.204 5.80466C233.068 9.67443 235 14.5996 235 20.5802C235 26.5607 233.068 31.4859 229.204 35.3557L90.1009 174.668C85.8856 178.889 80.9679 181 75.3475 181C69.7272 181 64.8094 178.889 60.5942 174.668L5.79596 119.787C1.93198 115.917 0 110.992 0 105.012C0 99.0311 1.93198 94.1059 5.79596 90.2361C9.65993 86.3664 14.5777 84.4315 20.5493 84.4315C26.5209 84.4315 31.4387 86.3664 35.3027 90.2361L75.3475 130.341Z" fill="#fff"/></svg>