<svg width="50" height="50" viewBox="0 0 50 50" fill="none" xmlns="http://www.w3.org/2000/svg"><circle cx="25" cy="25" r="18.5" stroke="#282828" stroke-width="3"/><circle cx="25" cy="25" r="12.5" stroke="#282828" stroke-width="3"/><path d="M28.8148 20.1409H22.1035V25.7337H28.8148V20.1409Z" fill="#49D4CB"/><path d="M20 27.2862V25.2281H26.0491C26.1386 25.2281 26.252 25.2251 26.3892 25.2192C26.5324 25.2072 26.6934 25.1744 26.8724 25.1207C27.3198 24.9835 27.636 24.7568 27.8209 24.4406C28.0118 24.1245 28.1073 23.7486 28.1073 23.3131C28.1073 23.0626 28.0715 22.8031 27.9999 22.5346C27.9343 22.2662 27.812 22.0276 27.633 21.8188C27.454 21.604 27.2005 21.4519 26.8724 21.3624C26.7113 21.3147 26.5502 21.2878 26.3892 21.2818C26.2281 21.2759 26.1148 21.2729 26.0491 21.2729H22.7919V19H26.1565C26.2042 19 26.3325 19.003 26.5413 19.0089C26.7501 19.0149 26.9798 19.0358 27.2303 19.0716C27.9999 19.1849 28.6293 19.4385 29.1184 19.8322C29.6136 20.22 29.9775 20.7091 30.2102 21.2997C30.4428 21.8903 30.5591 22.5376 30.5591 23.2416C30.5591 24.3333 30.2847 25.2281 29.7359 25.9261C29.193 26.6241 28.3578 27.0536 27.2303 27.2147C26.9798 27.2504 26.7501 27.2713 26.5413 27.2773C26.3325 27.2833 26.2042 27.2862 26.1565 27.2862H20ZM20 30.275V28.3958H27.8746V30.275H20ZM21.2528 31.8857V19H23.6868V31.8857H21.2528Z" fill="#282828"/></svg>