<svg width="50" height="50" viewBox="0 0 50 50" fill="none" xmlns="http://www.w3.org/2000/svg"><path d="M24.5 16.75H32.375C33.5353 16.75 34.6481 16.2891 35.4686 15.4686C36.2891 14.6481 36.75 13.5353 36.75 12.375C36.75 11.2147 36.2891 10.1019 35.4686 9.28141C34.6481 8.46094 33.5353 8 32.375 8C26.25 8 24.5 16.75 24.5 16.75Z" fill="#49D4CB"/><path d="M16.625 16.75H24.5C24.5 16.75 22.75 8 16.625 8C15.4647 8 14.3519 8.46094 13.5314 9.28141C12.7109 10.1019 12.25 11.2147 12.25 12.375C12.25 13.5353 12.7109 14.6481 13.5314 15.4686C14.3519 16.2891 15.4647 16.75 16.625 16.75Z" fill="#49D4CB"/><path d="M38.5 25.5V41.95C38.5 42.0879 38.4728 42.2244 38.4201 42.3518C38.3673 42.4792 38.29 42.595 38.1925 42.6925C38.095 42.79 37.9792 42.8673 37.8518 42.9201C37.7244 42.9728 37.5879 43 37.45 43H11.55C11.4121 43 11.2756 42.9728 11.1482 42.9201C11.0208 42.8673 10.905 42.79 10.8075 42.6925C10.71 42.595 10.6327 42.4792 10.5799 42.3518C10.5272 42.2244 10.5 42.0879 10.5 41.95V25.5M24.5 43V16.75M24.5 16.75H16.625C15.4647 16.75 14.3519 16.2891 13.5314 15.4686C12.7109 14.6481 12.25 13.5353 12.25 12.375C12.25 11.2147 12.7109 10.1019 13.5314 9.28141C14.3519 8.46094 15.4647 8 16.625 8C22.75 8 24.5 16.75 24.5 16.75ZM24.5 16.75H32.375C33.5353 16.75 34.6481 16.2891 35.4686 15.4686C36.2891 14.6481 36.75 13.5353 36.75 12.375C36.75 11.2147 36.2891 10.1019 35.4686 9.28141C34.6481 8.46094 33.5353 8 32.375 8C26.25 8 24.5 16.75 24.5 16.75ZM40.95 16.75H8.05C7.77152 16.75 7.50445 16.8606 7.30754 17.0575C7.11062 17.2545 7 17.5215 7 17.8V24.45C7 24.7285 7.11062 24.9955 7.30754 25.1925C7.50445 25.3894 7.77152 25.5 8.05 25.5H40.95C41.2285 25.5 41.4955 25.3894 41.6925 25.1925C41.8894 24.9955 42 24.7285 42 24.45V17.8C42 17.5215 41.8894 17.2545 41.6925 17.0575C41.4955 16.8606 41.2285 16.75 40.95 16.75Z" stroke="#282828" stroke-width="3" stroke-linecap="round" stroke-linejoin="round"/></svg>