<svg width="100" height="100" viewBox="0 0 100 100" fill="none" xmlns="http://www.w3.org/2000/svg"><circle cx="50" cy="50" r="50" fill="#49D4CB"/><path d="M39.4366 33.5004C39.1606 32.7193 38.3037 32.3097 37.5226 32.5856C36.7415 32.8616 36.3319 33.7185 36.6078 34.4996L39.4366 33.5004ZM36.5614 65.3405C36.7494 66.1473 37.5559 66.6489 38.3627 66.4608C39.1695 66.2728 39.6711 65.4663 39.483 64.6595L36.5614 65.3405ZM40 44.1791L41.5 44.1761L40 44.1791ZM37.0331 56.6716L35.5381 56.5484L37.0331 56.6716ZM38.0222 34C36.6078 34.4996 36.6078 34.4994 36.6077 34.4993C36.6077 34.4993 36.6077 34.4992 36.6077 34.4991C36.6077 34.4991 36.6077 34.4991 36.6077 34.4992C36.6078 34.4994 36.608 34.4999 36.6083 34.5008C36.6089 34.5025 36.6099 34.5056 36.6115 34.5099C36.6145 34.5186 36.6193 34.5325 36.6258 34.5514C36.6388 34.5892 36.6585 34.647 36.6839 34.7232C36.7348 34.8756 36.8085 35.1013 36.8975 35.3877C37.0756 35.9612 37.314 36.7744 37.5525 37.7266C38.035 39.6523 38.4957 42.0593 38.5 44.1822L41.5 44.1761C41.4949 41.6922 40.9667 39.0096 40.4626 36.9975C40.2079 35.9808 39.9535 35.1129 39.7624 34.4976C39.6667 34.1896 39.5865 33.944 39.5297 33.7737C39.5013 33.6885 39.4786 33.6221 39.4628 33.576C39.4549 33.553 39.4487 33.535 39.4442 33.5223C39.442 33.516 39.4403 33.511 39.439 33.5073C39.4384 33.5055 39.4378 33.504 39.4374 33.5028C39.4372 33.5023 39.437 33.5018 39.4369 33.5014C39.4368 33.5012 39.4367 33.5009 39.4367 33.5008C39.4366 33.5006 39.4366 33.5004 38.0222 34ZM38.5 44.1822C38.5041 46.2257 37.9421 47.9749 37.2496 49.9296C36.5716 51.8435 35.7485 53.9978 35.5381 56.5484L38.528 56.7949C38.7001 54.7082 39.3652 52.9418 40.0774 50.9314C40.7751 48.962 41.5053 46.7835 41.5 44.1761L38.5 44.1822ZM35.5381 56.5484C35.3973 58.2563 35.6744 60.4974 35.9539 62.2092C36.0972 63.0867 36.2482 63.8657 36.3634 64.4254C36.4211 64.7057 36.47 64.932 36.5048 65.0893C36.5221 65.168 36.536 65.2295 36.5457 65.272C36.5505 65.2933 36.5543 65.3097 36.5569 65.3212C36.5582 65.327 36.5593 65.3315 36.56 65.3347C36.5604 65.3363 36.5607 65.3376 36.5609 65.3386C36.561 65.3391 36.5611 65.3395 36.5612 65.3398C36.5612 65.34 36.5613 65.3402 36.5613 65.3402C36.5613 65.3404 36.5614 65.3405 38.0222 65C39.483 64.6595 39.4831 64.6596 39.4831 64.6596L39.4831 64.6597C39.4831 64.6597 39.4831 64.6596 39.483 64.6595C39.483 64.6592 39.4828 64.6585 39.4826 64.6576C39.4822 64.6557 39.4814 64.6525 39.4804 64.6481C39.4784 64.6393 39.4752 64.6256 39.4711 64.6072C39.4627 64.5704 39.4502 64.5149 39.4342 64.4425C39.4022 64.2976 39.3563 64.0854 39.3019 63.8207C39.1927 63.2904 39.0498 62.553 38.9147 61.7257C38.6374 60.0276 38.42 58.1045 38.528 56.7949L35.5381 56.5484Z" fill="#fff"/><path d="M50.4366 33.5004C50.1606 32.7193 49.3037 32.3097 48.5226 32.5856C47.7415 32.8616 47.3319 33.7185 47.6078 34.4996L50.4366 33.5004ZM47.5614 65.3405C47.7494 66.1473 48.5559 66.6489 49.3627 66.4608C50.1695 66.2728 50.6711 65.4663 50.483 64.6595L47.5614 65.3405ZM51 44.1791L52.5 44.1761L51 44.1791ZM48.0331 56.6716L46.5381 56.5484L48.0331 56.6716ZM49.0222 34C47.6078 34.4996 47.6078 34.4994 47.6077 34.4993C47.6077 34.4993 47.6077 34.4992 47.6077 34.4991C47.6077 34.4991 47.6077 34.4991 47.6077 34.4992C47.6078 34.4994 47.608 34.4999 47.6083 34.5008C47.6089 34.5025 47.6099 34.5056 47.6115 34.5099C47.6145 34.5186 47.6193 34.5325 47.6258 34.5514C47.6388 34.5892 47.6585 34.647 47.6839 34.7232C47.7348 34.8756 47.8085 35.1013 47.8975 35.3877C48.0756 35.9612 48.314 36.7744 48.5525 37.7266C49.035 39.6523 49.4957 42.0593 49.5 44.1822L52.5 44.1761C52.4949 41.6922 51.9667 39.0096 51.4626 36.9975C51.2079 35.9808 50.9535 35.1129 50.7624 34.4976C50.6667 34.1896 50.5865 33.944 50.5297 33.7737C50.5013 33.6885 50.4786 33.6221 50.4628 33.576C50.4549 33.553 50.4487 33.535 50.4442 33.5223C50.442 33.516 50.4403 33.511 50.439 33.5073C50.4384 33.5055 50.4378 33.504 50.4374 33.5028C50.4372 33.5023 50.437 33.5018 50.4369 33.5014C50.4368 33.5012 50.4367 33.5009 50.4367 33.5008C50.4366 33.5006 50.4366 33.5004 49.0222 34ZM49.5 44.1822C49.5041 46.2257 48.9421 47.9749 48.2496 49.9296C47.5716 51.8435 46.7485 53.9978 46.5381 56.5484L49.528 56.7949C49.7001 54.7082 50.3652 52.9418 51.0774 50.9314C51.7751 48.962 52.5053 46.7835 52.5 44.1761L49.5 44.1822ZM46.5381 56.5484C46.3973 58.2563 46.6744 60.4974 46.9539 62.2092C47.0972 63.0867 47.2482 63.8657 47.3634 64.4254C47.4211 64.7057 47.47 64.932 47.5048 65.0893C47.5221 65.168 47.536 65.2295 47.5457 65.272C47.5505 65.2933 47.5543 65.3097 47.5569 65.3212C47.5582 65.327 47.5593 65.3315 47.56 65.3347C47.5604 65.3363 47.5607 65.3376 47.5609 65.3386C47.561 65.3391 47.5611 65.3395 47.5612 65.3398C47.5612 65.34 47.5613 65.3402 47.5613 65.3402C47.5613 65.3404 47.5614 65.3405 49.0222 65C50.483 64.6595 50.4831 64.6596 50.4831 64.6596L50.4831 64.6597C50.4831 64.6597 50.4831 64.6596 50.483 64.6595C50.483 64.6592 50.4828 64.6585 50.4826 64.6576C50.4822 64.6557 50.4814 64.6525 50.4804 64.6481C50.4784 64.6393 50.4752 64.6256 50.4711 64.6072C50.4627 64.5704 50.4502 64.5149 50.4342 64.4425C50.4022 64.2976 50.3563 64.0854 50.3019 63.8207C50.1927 63.2904 50.0498 62.553 49.9147 61.7257C49.6374 60.0276 49.42 58.1045 49.528 56.7949L46.5381 56.5484Z" fill="#fff"/><path d="M62.4366 33.5004C62.1606 32.7193 61.3037 32.3097 60.5226 32.5856C59.7415 32.8616 59.3319 33.7185 59.6078 34.4996L62.4366 33.5004ZM59.5614 65.3405C59.7494 66.1473 60.5559 66.6489 61.3627 66.4608C62.1695 66.2728 62.6711 65.4663 62.483 64.6595L59.5614 65.3405ZM63 44.1791L64.5 44.1761L63 44.1791ZM60.0331 56.6716L58.5381 56.5484L60.0331 56.6716ZM61.0222 34C59.6078 34.4996 59.6078 34.4994 59.6077 34.4993C59.6077 34.4993 59.6077 34.4992 59.6077 34.4991C59.6077 34.4991 59.6077 34.4991 59.6077 34.4992C59.6078 34.4994 59.608 34.4999 59.6083 34.5008C59.6089 34.5025 59.6099 34.5056 59.6115 34.5099C59.6145 34.5186 59.6193 34.5325 59.6258 34.5514C59.6388 34.5892 59.6585 34.647 59.6839 34.7232C59.7348 34.8756 59.8085 35.1013 59.8975 35.3877C60.0756 35.9612 60.314 36.7744 60.5525 37.7266C61.035 39.6523 61.4957 42.0593 61.5 44.1822L64.5 44.1761C64.4949 41.6922 63.9667 39.0096 63.4626 36.9975C63.2079 35.9808 62.9535 35.1129 62.7624 34.4976C62.6667 34.1896 62.5865 33.944 62.5297 33.7737C62.5013 33.6885 62.4786 33.6221 62.4628 33.576C62.4549 33.553 62.4487 33.535 62.4442 33.5223C62.442 33.516 62.4403 33.511 62.439 33.5073C62.4384 33.5055 62.4378 33.504 62.4374 33.5028C62.4372 33.5023 62.437 33.5018 62.4369 33.5014C62.4368 33.5012 62.4367 33.5009 62.4367 33.5008C62.4366 33.5006 62.4366 33.5004 61.0222 34ZM61.5 44.1822C61.5041 46.2257 60.9421 47.9749 60.2496 49.9296C59.5716 51.8435 58.7485 53.9978 58.5381 56.5484L61.528 56.7949C61.7001 54.7082 62.3652 52.9418 63.0774 50.9314C63.7751 48.962 64.5053 46.7835 64.5 44.1761L61.5 44.1822ZM58.5381 56.5484C58.3973 58.2563 58.6744 60.4974 58.9539 62.2092C59.0972 63.0867 59.2482 63.8657 59.3634 64.4254C59.4211 64.7057 59.47 64.932 59.5048 65.0893C59.5221 65.168 59.536 65.2295 59.5457 65.272C59.5505 65.2933 59.5543 65.3097 59.5569 65.3212C59.5582 65.327 59.5593 65.3315 59.56 65.3347C59.5604 65.3363 59.5607 65.3376 59.5609 65.3386C59.561 65.3391 59.5611 65.3395 59.5612 65.3398C59.5612 65.34 59.5613 65.3402 59.5613 65.3402C59.5613 65.3404 59.5614 65.3405 61.0222 65C62.483 64.6595 62.4831 64.6596 62.4831 64.6596L62.4831 64.6597C62.4831 64.6597 62.4831 64.6596 62.483 64.6595C62.483 64.6592 62.4828 64.6585 62.4826 64.6576C62.4822 64.6557 62.4814 64.6525 62.4804 64.6481C62.4784 64.6393 62.4752 64.6256 62.4711 64.6072C62.4627 64.5704 62.4502 64.5149 62.4342 64.4425C62.4022 64.2976 62.3563 64.0854 62.3019 63.8207C62.1927 63.2904 62.0498 62.553 61.9147 61.7257C61.6374 60.0276 61.42 58.1045 61.528 56.7949L58.5381 56.5484Z" fill="#fff"/></svg>