<svg width="100" height="100" viewBox="0 0 100 100" fill="none" xmlns="http://www.w3.org/2000/svg"><circle cx="50" cy="50" r="50" fill="#49D4CB"/><g clip-path="url(#clip0_225_1313)" fill="#fff"><path d="M50.0701 71.6807C49.7017 71.6807 49.3485 71.5343 49.088 71.2739C48.8275 71.0134 48.6812 70.6601 48.6812 70.2918V29.6807C48.6349 29.4773 48.6349 29.266 48.6814 29.0627C48.7279 28.8593 48.8195 28.669 48.9496 28.5059C49.0797 28.3428 49.2449 28.2111 49.4329 28.1206C49.6208 28.0301 49.8268 27.9832 50.0354 27.9832C50.244 27.9832 50.4499 28.0301 50.6379 28.1206C50.8259 28.2111 50.991 28.3428 51.1211 28.5059C51.2512 28.669 51.3429 28.8593 51.3894 29.0627C51.4358 29.266 51.4359 29.4773 51.3895 29.6807V70.3196C51.3829 70.6714 51.243 71.0076 50.9981 71.2602C50.7532 71.5129 50.4215 71.6631 50.0701 71.6807Z"/><path d="M50.0842 38.9862L45.1676 34.0834C44.9089 33.8232 44.7637 33.4712 44.7637 33.1042C44.7637 32.7373 44.9089 32.3853 45.1676 32.1251C45.4278 31.8664 45.7798 31.7212 46.1467 31.7212C46.5136 31.7212 46.8657 31.8664 47.1259 32.1251L50.0842 35.0695L53.0287 32.1251C53.2889 31.8664 53.6409 31.7212 54.0078 31.7212C54.3748 31.7212 54.7268 31.8664 54.987 32.1251C55.2457 32.3853 55.3909 32.7373 55.3909 33.1042C55.3909 33.4712 55.2457 33.8232 54.987 34.0834L50.0842 38.9862Z"/><path d="M53.959 68.2917C53.5946 68.2902 53.2455 68.1455 52.9868 67.8889L50.0007 64.9445L47.084 67.8889C46.8238 68.1476 46.4718 68.2928 46.1048 68.2928C45.7379 68.2928 45.3859 68.1476 45.1257 67.8889C44.9955 67.7598 44.8922 67.6062 44.8217 67.4369C44.7511 67.2677 44.7148 67.0862 44.7148 66.9028C44.7148 66.7195 44.7511 66.5379 44.8217 66.3687C44.8922 66.1994 44.9955 66.0458 45.1257 65.9167L50.0007 61.0139L54.9173 65.9167C55.0475 66.0458 55.1508 66.1994 55.2214 66.3687C55.2919 66.5379 55.3282 66.7195 55.3282 66.9028C55.3282 67.0862 55.2919 67.2677 55.2214 67.4369C55.1508 67.6062 55.0475 67.7598 54.9173 67.8889C54.6621 68.1422 54.3185 68.2866 53.959 68.2917Z"/><path d="M67.9448 61.8055C67.7015 61.8072 67.462 61.7449 67.2504 61.6249L31.1393 40.7916C30.8225 40.6037 30.5934 40.2977 30.5022 39.9409C30.411 39.584 30.4653 39.2056 30.6531 38.8888C30.745 38.7308 30.8672 38.5925 31.0127 38.4819C31.1581 38.3712 31.324 38.2903 31.5007 38.2438C31.6775 38.1974 31.8617 38.1863 32.0428 38.2112C32.2239 38.236 32.3982 38.2964 32.5559 38.3888L68.667 59.2222C68.9346 59.3738 69.1443 59.6099 69.2632 59.8935C69.3821 60.1771 69.4035 60.4922 69.3241 60.7893C69.2446 61.0864 69.0688 61.3487 68.8242 61.5351C68.5797 61.7216 68.2801 61.8215 67.9726 61.8194L67.9448 61.8055Z"/><path d="M33.3331 46.3473C32.9647 46.3952 32.5924 46.2948 32.2981 46.0682C32.0038 45.8416 31.8115 45.5073 31.7636 45.139C31.7158 44.7706 31.8162 44.3983 32.0428 44.104C32.2694 43.8097 32.6036 43.6174 32.972 43.5695L36.9998 42.4862L35.8886 38.514C35.834 38.3358 35.8158 38.1484 35.8351 37.963C35.8544 37.7776 35.9109 37.598 36.0011 37.4349C36.0913 37.2717 36.2134 37.1284 36.3601 37.0135C36.5069 36.8986 36.6752 36.8143 36.8552 36.7658C37.0352 36.7173 37.2231 36.7056 37.4077 36.7312C37.5923 36.7569 37.7699 36.8195 37.9299 36.9152C38.0898 37.0109 38.2288 37.1379 38.3387 37.2885C38.4485 37.4391 38.5269 37.6102 38.5692 37.7918L40.3748 44.4445L33.6664 46.2918C33.5587 46.3268 33.4463 46.3455 33.3331 46.3473Z"/><path d="M62.5703 63.25C62.2549 63.2599 61.9455 63.1622 61.6931 62.9729C61.4406 62.7835 61.2602 62.5139 61.1814 62.2083L59.4453 55.5555L66.1398 53.75C66.318 53.6953 66.5054 53.6771 66.6908 53.6964C66.8761 53.7158 67.0558 53.7722 67.2189 53.8624C67.382 53.9526 67.5253 54.0747 67.6402 54.2214C67.7552 54.3682 67.8394 54.5365 67.8879 54.7165C67.9364 54.8965 67.9482 55.0844 67.9225 55.269C67.8968 55.4537 67.8343 55.6312 67.7386 55.7912C67.6428 55.9511 67.5159 56.0901 67.3653 56.2C67.2147 56.3098 67.0435 56.3882 66.862 56.4305L62.8342 57.5139L63.9175 61.5416C64.0107 61.8971 63.9593 62.275 63.7745 62.5925C63.5897 62.9101 63.2865 63.1415 62.9314 63.2361C62.8128 63.2617 62.6906 63.2664 62.5703 63.25Z"/><path d="M31.8615 61.8056C31.554 61.8077 31.2544 61.7077 31.0098 61.5213C30.7653 61.3349 30.5895 61.0726 30.51 60.7755C30.4306 60.4784 30.452 60.1633 30.5709 59.8797C30.6898 59.5961 30.8995 59.36 31.167 59.2083L67.2782 38.375C67.5954 38.1928 67.9717 38.1431 68.3254 38.2367C68.6791 38.3303 68.9815 38.5597 69.167 38.875C69.2595 39.0327 69.3198 39.2071 69.3447 39.3881C69.3696 39.5692 69.3585 39.7534 69.312 39.9302C69.2656 40.107 69.1847 40.2728 69.074 40.4183C68.9633 40.5637 68.825 40.6859 68.667 40.7778L32.5559 61.6111C32.3456 61.7359 32.1061 61.803 31.8615 61.8056Z"/><path d="M37.2355 63.25C37.1161 63.271 36.9939 63.271 36.8744 63.25C36.5193 63.1554 36.2162 62.924 36.0314 62.6065C35.8465 62.2889 35.7951 61.911 35.8883 61.5555L36.9716 57.5278L32.9439 56.4444C32.7607 56.3997 32.5885 56.318 32.4379 56.2045C32.2873 56.0911 32.1613 55.9481 32.0678 55.7843C31.9742 55.6206 31.915 55.4395 31.8937 55.2521C31.8724 55.0648 31.8894 54.875 31.9439 54.6944C31.9906 54.5171 32.072 54.3508 32.1833 54.2051C32.2947 54.0593 32.4337 53.9371 32.5926 53.8454C32.7514 53.7538 32.9268 53.6944 33.1087 53.6709C33.2905 53.6474 33.4753 53.6601 33.6522 53.7083L40.3744 55.5555L38.5689 62.25C38.4847 62.5385 38.3093 62.7919 38.0689 62.9722C37.8285 63.1525 37.536 63.25 37.2355 63.25Z"/><path d="M66.5009 46.3472C66.3813 46.3664 66.2594 46.3664 66.1398 46.3472L59.4453 44.4445L61.237 37.7361C61.2731 37.5457 61.3486 37.3649 61.4588 37.2053C61.5689 37.0458 61.7113 36.9112 61.8766 36.81C62.0419 36.7088 62.2266 36.6433 62.4188 36.6178C62.611 36.5923 62.8063 36.6073 62.9924 36.6618C63.1784 36.7164 63.3509 36.8092 63.4989 36.9345C63.6469 37.0597 63.767 37.2145 63.8515 37.389C63.936 37.5634 63.9831 37.7537 63.9897 37.9474C63.9963 38.1411 63.9622 38.3341 63.8898 38.5139L62.8064 42.5278L66.8342 43.6111C67.2026 43.659 67.5368 43.8513 67.7634 44.1456C67.99 44.4399 68.0904 44.8122 68.0425 45.1806C67.9946 45.5489 67.8024 45.8832 67.5081 46.1098C67.2137 46.3364 66.8414 46.4368 66.4731 46.3889L66.5009 46.3472Z"/></g><defs><clipPath id="clip0_225_1313"><path fill="#fff" transform="translate(25 25)" d="M0 0H50V50H0z"/></clipPath></defs></svg>