<svg width="100" height="100" viewBox="0 0 100 100" fill="none" xmlns="http://www.w3.org/2000/svg"><circle cx="50" cy="50" r="50" fill="#49D4CB"/><path d="M58.4641 28.75L58.4647 28.75C59.9038 28.7537 61.2825 29.3288 62.2977 30.3489C63.3129 31.3689 63.8813 32.7504 63.8782 34.1895M58.4641 28.75L63.6282 34.1889M58.4641 28.75C57.5711 28.7499 56.692 28.971 55.9054 29.3937C55.1717 29.7879 54.5397 30.346 54.0581 31.0236C52.5518 30.6365 50.9713 30.43 49.3444 30.43C40.3643 30.43 32.8461 36.7219 30.9185 45.1569C29.5602 45.2217 28.2727 45.7946 27.3142 46.766C26.3091 47.7846 25.7469 49.1589 25.75 50.5899M58.4641 28.75L31.608 56.0122C30.911 56.0676 30.2091 55.9879 29.5412 55.7768C28.81 55.5456 28.1362 55.1621 27.564 54.6516C26.9918 54.141 26.5343 53.515 26.2217 52.8148C25.9091 52.1148 25.7483 51.3565 25.75 50.5899M63.8782 34.1895L63.6282 34.1889M63.8782 34.1895C63.8782 34.1893 63.8782 34.1891 63.8782 34.1889H63.6282M63.8782 34.1895C63.8781 35.0629 63.6732 35.8887 63.3084 36.6192M63.6282 34.1889C63.6282 35.0843 63.4029 35.9262 63.0058 36.6593M63.3084 36.6192C63.2689 36.5757 63.2291 36.5324 63.1891 36.4893L63.0058 36.6593M63.3084 36.6192C66.494 40.1196 68.258 44.6863 68.25 49.4234M63.3084 36.6192C63.2817 36.6728 63.2541 36.7258 63.2256 36.7783L63.0058 36.6593M63.0058 36.6593L68.25 49.4234M68.25 49.4234C68.25 49.4233 68.25 49.4232 68.25 49.423L68 49.4235L68.25 49.4239C68.25 49.4237 68.25 49.4236 68.25 49.4234ZM25.75 50.5899C25.75 50.5901 25.75 50.5903 25.75 50.5905L26 50.5899L25.75 50.5893C25.75 50.5895 25.75 50.5897 25.75 50.5899ZM58.2785 60.3722H58.2789C59.632 60.3722 60.8724 60.8717 61.8207 61.6963C63.3783 60.1002 64.6176 58.2209 65.4713 56.1591C66.3555 54.0238 66.8087 51.7349 66.805 49.4239V49.4235C66.805 44.989 65.1686 40.9401 62.4669 37.8524C61.4772 38.9443 60.0508 39.6297 58.4641 39.6297H58.4635C57.7506 39.6282 57.045 39.4861 56.387 39.2118C55.729 38.9375 55.1314 38.5362 54.6285 38.0309C54.1256 37.5256 53.7272 36.9261 53.456 36.2668C53.1849 35.6075 53.0462 34.9012 53.0481 34.1883M58.2785 60.3722L53.2981 34.1889M58.2785 60.3722C57.4781 60.3735 56.6879 60.5518 55.9646 60.8944C55.2412 61.2369 54.6025 61.7352 54.0944 62.3536C53.5862 62.9719 53.221 63.695 53.0251 64.471C52.8493 65.1676 52.8136 65.8914 52.9194 66.6004C51.7658 66.8409 50.57 66.9681 49.3444 66.9681C41.9026 66.9681 35.5471 62.2882 33.0361 55.6969C34.0344 55.3262 34.9023 54.6696 35.5328 53.8067C36.215 52.8731 36.5818 51.7463 36.5801 50.5899M58.2785 60.3722L53.4572 32.1125C53.4254 32.1901 53.3953 32.2686 53.3669 32.348M53.0481 34.1883L53.2981 34.1889M53.0481 34.1883C53.0481 34.1885 53.0481 34.1887 53.0481 34.1889H53.2981M53.0481 34.1883C53.0482 33.5432 53.1613 32.9233 53.3669 32.348M53.2981 34.1889C53.2981 33.5639 53.4093 32.9637 53.6112 32.4076C53.5299 32.3871 53.4484 32.3673 53.3669 32.348M53.3669 32.348C52.0492 32.0364 50.6993 31.8795 49.3446 31.8807H49.3444C41.122 31.8807 34.2243 37.5936 32.3744 45.2883C33.5257 45.5553 34.5612 46.1912 35.3208 47.1028C36.1365 48.0815 36.5822 49.3159 36.5801 50.5899M36.5801 50.5899C36.5801 50.5898 36.5801 50.5897 36.5801 50.5895L36.3301 50.5899L36.5801 50.5903C36.5801 50.5902 36.5801 50.5901 36.5801 50.5899ZM49.3449 54.87L49.3437 54.87C48.6302 54.8682 47.9241 54.7258 47.2656 54.4511C46.6071 54.1763 46.0092 53.7746 45.506 53.2688C45.0028 52.7629 44.6041 52.163 44.3328 51.5031C44.0614 50.8432 43.9227 50.1363 43.9245 49.4228M49.3449 54.87L43.9245 49.4228M49.3449 54.87C50.0586 54.8684 50.7649 54.7263 51.4236 54.4516C52.0824 54.177 52.6805 53.7753 53.1839 53.2695C53.6874 52.7636 54.0862 52.1635 54.3577 51.5035C54.6291 50.8437 54.7678 50.1369 54.7661 49.4235L49.3449 54.87ZM43.9245 49.4228C43.9249 46.4168 46.3494 43.9788 49.3444 43.9788C52.3392 43.9788 54.7657 46.4167 54.7661 49.4228L43.9245 49.4228ZM62.7807 62.787C62.741 62.7276 62.7001 62.669 62.6581 62.6114L62.456 62.7585L62.632 62.936C62.6818 62.8866 62.7314 62.8369 62.7807 62.787ZM63.6949 65.8111C63.6949 65.8109 63.6949 65.8107 63.6949 65.8105L63.4449 65.8111H63.6949ZM53.3189 67.9979C53.3876 67.9832 53.4564 67.9681 53.525 67.9526L53.4699 67.7087L53.237 67.7995C53.263 67.8663 53.2903 67.9324 53.3189 67.9979ZM49.346 68.4169C49.3461 68.4169 49.3462 68.4169 49.3463 68.4169V68.1669L49.346 68.4169Z" fill="#fff" stroke="#fff" stroke-width=".5"/></svg>