<svg width="100" height="100" viewBox="0 0 100 100" fill="none" xmlns="http://www.w3.org/2000/svg"><circle cx="50" cy="50" r="50" fill="#49D4CB"/><g clip-path="url(#clip0_288_472)"><path d="M68.6297 46.6678H66.8655C62.7166 46.6678 60.638 41.6415 63.5721 38.7014L64.8189 37.4504C65.23 37.008 65.4537 36.4231 65.443 35.8187C65.4322 35.2143 65.1878 34.6378 64.7612 34.2104C64.3346 33.783 63.7591 33.5383 63.156 33.5276C62.5529 33.517 61.9692 33.7413 61.5279 34.1534L60.2803 35.402C57.3462 38.3413 52.3303 36.2592 52.3303 32.1017V30.3339C52.3303 29.7149 52.0849 29.1213 51.6481 28.6836C51.2113 28.2459 50.6189 28 50.0012 28C49.3835 28 48.7911 28.2459 48.3543 28.6836C47.9175 29.1213 47.6722 29.7149 47.6722 30.3339V32.1025C47.6722 36.26 42.6563 38.3421 39.7222 35.4028L38.4746 34.1534C38.0332 33.7413 37.4495 33.517 36.8464 33.5276C36.2433 33.5383 35.6678 33.783 35.2413 34.2104C34.8147 34.6378 34.5702 35.2143 34.5595 35.8187C34.5487 36.4231 34.7725 37.008 35.1836 37.4504L36.432 38.7014C39.3661 41.6415 37.2875 46.6678 33.1386 46.6678H31.3727C31.0633 46.6619 30.7557 46.718 30.4681 46.8327C30.1805 46.9473 29.9186 47.1183 29.6977 47.3355C29.4768 47.5528 29.3013 47.812 29.1815 48.098C29.0617 48.384 29 48.6911 29 49.0012C29 49.3114 29.0617 49.6185 29.1815 49.9045C29.3013 50.1905 29.4768 50.4497 29.6977 50.6669C29.9186 50.8842 30.1805 51.0551 30.4681 51.1698C30.7557 51.2845 31.0633 51.3405 31.3727 51.3347H33.1369C37.2859 51.3347 39.3644 56.3618 36.4304 59.3019L35.1836 60.5521C34.7765 60.9952 34.5561 61.5789 34.5686 62.181C34.581 62.7832 34.8252 63.3572 35.2502 63.7831C35.6752 64.209 36.2481 64.4537 36.849 64.4662C37.4499 64.4786 38.0324 64.2578 38.4746 63.8499L39.7222 62.5989C42.6563 59.6587 47.6722 61.7416 47.6722 65.8991V67.6661C47.6722 68.2851 47.9175 68.8787 48.3543 69.3164C48.7911 69.7541 49.3835 70 50.0012 70C50.6189 70 51.2113 69.7541 51.6481 69.3164C52.0849 68.8787 52.3303 68.2851 52.3303 67.6661V65.9007C52.3303 61.7432 57.3462 59.6604 60.2803 62.6005L61.5279 63.8499C61.9701 64.2578 62.5525 64.4786 63.1535 64.4662C63.7544 64.4537 64.3272 64.209 64.7522 63.7831C65.1772 63.3572 65.4215 62.7832 65.4339 62.181C65.4463 61.5789 65.226 60.9952 64.8189 60.5521L63.5704 59.3019C60.6364 56.3618 62.7149 51.3347 66.8639 51.3347H68.6273C68.9367 51.3405 69.2443 51.2845 69.5319 51.1698C69.8195 51.0551 70.0814 50.8842 70.3023 50.6669C70.5232 50.4497 70.6987 50.1905 70.8185 49.9045C70.9383 49.6185 71 49.3114 71 49.0012C71 48.6911 70.9383 48.384 70.8185 48.098C70.6987 47.812 70.5232 47.5528 70.3023 47.3355C70.0814 47.1183 69.8195 46.9473 69.5319 46.8327C69.2443 46.718 68.9367 46.6619 68.6273 46.6678H68.6297ZM47.3815 50.3142C46.6043 50.3142 45.8446 50.0833 45.1984 49.6506C44.5522 49.2179 44.0485 48.6029 43.7511 47.8834C43.4537 47.1639 43.3759 46.3722 43.5275 45.6083C43.6791 44.8445 44.0534 44.1429 44.6029 43.5922C45.1525 43.0415 45.8527 42.6665 46.6149 42.5145C47.3772 42.3626 48.1673 42.4406 48.8853 42.7386C49.6033 43.0367 50.217 43.5414 50.6488 44.1889C51.0806 44.8364 51.3111 45.5977 51.3111 46.3765C51.3111 47.4209 50.8971 48.4224 50.1601 49.1609C49.4232 49.8993 48.4237 50.3142 47.3815 50.3142ZM53.9308 54.9081C53.5422 54.9081 53.1623 54.7927 52.8392 54.5763C52.5161 54.36 52.2643 54.0525 52.1156 53.6927C51.9668 53.333 51.9279 52.9371 52.0038 52.5552C52.0796 52.1733 52.2667 51.8225 52.5415 51.5471C52.8162 51.2718 53.1663 51.0843 53.5475 51.0083C53.9286 50.9323 54.3236 50.9713 54.6827 51.1203C55.0417 51.2694 55.3485 51.5217 55.5644 51.8455C55.7803 52.1692 55.8955 52.5499 55.8955 52.9393C55.8955 53.4615 55.6885 53.9622 55.3201 54.3315C54.9516 54.7007 54.4519 54.9081 53.9308 54.9081Z" stroke="#fff" stroke-width="2"/><rect x="28" y="24.293" width="66" height="3" rx="1.5" transform="rotate(45 28 24.293)" fill="#fff" stroke="#49D4CB"/></g><defs><clipPath id="clip0_288_472"><path fill="#fff" transform="translate(25 25)" d="M0 0H50V50H0z"/></clipPath></defs></svg>