<svg width="100" height="100" viewBox="0 0 100 100" fill="none" xmlns="http://www.w3.org/2000/svg"><circle cx="50" cy="50" r="50" fill="#49D4CB"/><path d="M50.5 63.1945V60.0116C51.684 59.9053 52.7939 59.3681 53.6343 58.4948C54.4746 57.6214 54.9914 56.4678 55.0938 55.2373H58.1562C58.0573 57.3144 57.2188 59.2791 55.8039 60.7497C54.389 62.2202 52.4986 63.0916 50.5 63.1945Z" fill="#fff"/><path d="M50.5 69.5603C46.8464 69.5556 43.3436 68.0451 40.7601 65.3601C38.1766 62.675 36.7232 59.0346 36.7188 55.2373C36.8012 52.4455 37.5902 49.7256 39.0064 47.3518L49.203 30.4698C49.3503 30.255 49.5449 30.0799 49.7705 29.959C49.9961 29.8382 50.2462 29.7751 50.5 29.7751C50.7538 29.7751 51.0039 29.8382 51.2295 29.959C51.4551 30.0799 51.6497 30.255 51.797 30.4698L61.9492 47.269C63.3891 49.6649 64.1937 52.414 64.2812 55.2373C64.2768 59.0346 62.8234 62.675 60.2399 65.3601C57.6564 68.0451 54.1536 69.5556 50.5 69.5603ZM50.5 34.3068L41.6463 48.9607C40.5055 50.8466 39.8623 53.0113 39.7812 55.2373C39.7812 58.1919 40.9105 61.0254 42.9207 63.1145C44.9309 65.2037 47.6572 66.3774 50.5 66.3774C53.3428 66.3774 56.0691 65.2037 58.0793 63.1145C60.0895 61.0254 61.2188 58.1919 61.2188 55.2373C61.1314 52.9802 60.4722 50.787 59.3078 48.8796L50.5 34.3068Z" fill="#fff"/></svg>