<svg width="100" height="100" viewBox="0 0 100 100" fill="none" xmlns="http://www.w3.org/2000/svg"><circle cx="50" cy="50" r="50" fill="#49D4CB"/><path d="M29.166 58.25C32.6452 56.6875 36.1035 55.125 39.5827 54.4375V37.4167C39.5827 35.7591 40.2412 34.1694 41.4133 32.9973C42.5854 31.8252 44.1751 31.1667 45.8327 31.1667C48.5618 31.1667 50.8743 32.8959 51.7285 35.3334H45.8327C45.2801 35.3334 44.7502 35.5528 44.3595 35.9435C43.9688 36.3342 43.7493 36.8642 43.7493 37.4167V39.5H54.166V37.4167C54.166 35.7591 54.8245 34.1694 55.9966 32.9973C57.1687 31.8252 58.7584 31.1667 60.416 31.1667C63.1452 31.1667 65.4577 32.8959 66.3119 35.3334H60.416C59.8635 35.3334 59.3336 35.5528 58.9429 35.9435C58.5522 36.3342 58.3327 36.8642 58.3327 37.4167V58.125C62.4994 57.4584 66.666 54.0834 70.8327 54.0834V58.25C66.2077 58.25 61.5827 62.4167 56.9369 62.4167C52.3118 62.4167 47.6869 58.25 43.0619 58.25C38.416 58.25 33.791 60.3334 29.166 62.4167V58.25ZM54.166 43.6667H43.7493V47.8334H54.166V43.6667ZM54.166 52H43.7493V54.0834C47.2285 54.4167 50.6869 56.8125 54.166 57.8125V52ZM29.166 66.5834C33.791 64.5 38.416 62.4167 43.0619 62.4167C47.6869 62.4167 52.3118 66.5834 56.9369 66.5834C61.5827 66.5834 66.2077 62.4167 70.8327 62.4167V66.5834C66.2077 66.5834 61.5827 70.75 56.9369 70.75C52.3118 70.75 47.6869 66.5834 43.0619 66.5834C38.416 66.5834 33.791 68.6667 29.166 70.75V66.5834Z" fill="#fff"/></svg>