<svg width="100" height="100" viewBox="0 0 100 100" fill="none" xmlns="http://www.w3.org/2000/svg"><circle cx="50" cy="50" r="50" fill="#49D4CB"/><path d="M47.4656 47.4663L48.5262 48.5269L47.4655 47.4663C46.7935 48.1383 46.416 49.0497 46.416 50.0001C46.416 50.9504 46.7935 51.8619 47.4655 52.5339C48.1376 53.2059 49.049 53.5834 49.9993 53.5834C50.9497 53.5834 51.8611 53.2059 52.5331 52.5339C53.2052 51.8619 53.5827 50.9504 53.5827 50.0001C53.5827 49.0497 53.2052 48.1383 52.5331 47.4663C51.8611 46.7943 50.9497 46.4167 49.9993 46.4167C49.049 46.4167 48.1376 46.7943 47.4656 47.4663ZM50.8839 43.9082L50.6367 45.1181L51.7766 45.593C52.5553 45.9175 53.222 46.414 53.7239 47.0413L54.5064 48.0195L55.6085 47.4238C59.2296 45.4664 62.8298 44.9666 65.3934 45.6614C66.6566 46.0037 67.636 46.6233 68.3015 47.4669C68.9621 48.3043 69.3952 49.4654 69.3952 51.0417C69.3952 55.3828 67.7158 56.937 66.4646 57.2874C65.1145 57.6655 63.3112 56.9655 62.3421 55.019L62.3383 55.0114C60.98 52.322 58.1882 51.2671 56.1121 50.8429L54.9022 50.5958L54.4272 51.7357C54.1087 52.5002 53.6118 53.165 52.9445 53.7322L52.0195 54.5185L52.5958 55.5871C54.5429 59.1977 55.0378 62.787 54.3412 65.3426C53.998 66.6016 53.3784 67.5782 52.5345 68.2421C51.6966 68.9012 50.5349 69.3334 48.9577 69.3334C44.6199 69.3334 43.0701 67.6515 42.7205 66.395C42.3421 65.0344 43.0484 63.2255 44.9827 62.2584C47.6489 60.9253 48.7073 58.1797 49.1526 56.1312L49.4203 54.9L48.2537 54.4238C47.4636 54.1013 46.7778 53.5876 46.2748 52.9589L45.4947 51.9837L44.3943 52.5742C40.7819 54.5126 37.1961 55.0077 34.6447 54.3154C33.388 53.9745 32.4146 53.3582 31.7533 52.5192C31.0969 51.6863 30.666 50.5303 30.666 48.9584C30.666 44.6149 32.3425 43.0545 33.5903 42.7012C34.9325 42.3211 36.7289 43.0135 37.6982 44.9603L37.6982 44.9603L37.7021 44.968C39.0617 47.6599 41.8362 48.6924 43.9074 49.1156L45.1395 49.3673L45.6024 48.198C45.8962 47.4558 46.3956 46.7953 47.0473 46.2867L48.0459 45.5073L47.4446 44.3922C45.4972 40.7813 45.0023 37.1964 45.6944 34.6455C46.0354 33.3886 46.6518 32.4149 47.49 31.7535C48.322 31.0971 49.4753 30.6667 51.041 30.6667C55.381 30.6667 56.9448 32.3461 57.3011 33.6021C57.6846 34.9543 56.991 36.7531 55.0602 37.7197C52.3654 39.0552 51.3085 41.8298 50.8839 43.9082Z" stroke="#fff" stroke-width="3"/></svg>