<svg width="100" height="100" viewBox="0 0 100 100" fill="none" xmlns="http://www.w3.org/2000/svg"><circle cx="50" cy="50" r="50" fill="#49D4CB"/><path d="M51.1063 28.5812C50.9611 28.4357 50.7887 28.3203 50.5989 28.2415C50.409 28.1627 50.2055 28.1222 50 28.1222C49.7945 28.1222 49.591 28.1627 49.4011 28.2415C49.2113 28.3203 49.0389 28.4357 48.8938 28.5812L30.1438 47.3312C29.9987 47.4766 29.8838 47.6491 29.8055 47.839C29.7272 48.0288 29.6871 48.2322 29.6875 48.4375V70.3125C29.6875 70.7269 29.8521 71.1243 30.1451 71.4173C30.4382 71.7104 30.8356 71.875 31.25 71.875H45.3125C45.7269 71.875 46.1243 71.7104 46.4174 71.4173C46.7104 71.1243 46.875 70.7269 46.875 70.3125V57.8125H53.125V70.3125C53.125 70.7269 53.2896 71.1243 53.5826 71.4173C53.8757 71.7104 54.2731 71.875 54.6875 71.875H68.75C69.1644 71.875 69.5618 71.7104 69.8549 71.4173C70.1479 71.1243 70.3125 70.7269 70.3125 70.3125V48.4375C70.3129 48.2322 70.2728 48.0288 70.1945 47.839C70.1162 47.6491 70.0013 47.4766 69.8563 47.3312L65.625 43.1031V32.8125C65.625 32.3981 65.4604 32.0007 65.1674 31.7076C64.8743 31.4146 64.4769 31.25 64.0625 31.25H60.9375C60.5231 31.25 60.1257 31.4146 59.8326 31.7076C59.5396 32.0007 59.375 32.3981 59.375 32.8125V36.8531L51.1063 28.5812ZM32.8125 68.75V49.0844L50 31.8969L67.1875 49.0844V68.75H56.25V56.25C56.25 55.8356 56.0854 55.4382 55.7924 55.1451C55.4993 54.8521 55.1019 54.6875 54.6875 54.6875H45.3125C44.8981 54.6875 44.5007 54.8521 44.2077 55.1451C43.9146 55.4382 43.75 55.8356 43.75 56.25V68.75H32.8125Z" fill="#fff"/></svg>