<svg width="100" height="100" viewBox="0 0 100 100" fill="none" xmlns="http://www.w3.org/2000/svg"><circle cx="50" cy="50" r="50" fill="#49D4CB"/><path d="M62.5002 29.1667C62.8608 29.1663 63.2104 29.2907 63.4898 29.5188L63.646 29.6646L70.4648 37.0188L70.5273 37.0979C70.7398 37.3813 70.8356 37.7021 70.8356 38.0146L70.8315 42.0146C70.8315 44.0854 70.044 45.9729 68.7481 47.3896V69.2709C68.7481 69.6484 68.6114 70.0132 68.3632 70.2978C68.115 70.5824 67.7722 70.7674 67.3981 70.8188L67.1856 70.8334H32.8169C32.4389 70.8338 32.0736 70.6973 31.7886 70.4491C31.5036 70.2009 31.3183 69.8578 31.2669 69.4834L31.2544 69.2709L31.2502 47.3917C30.0183 46.0436 29.2879 44.3127 29.1815 42.4896L29.1669 42.0146V38.1042C29.1488 37.8074 29.2183 37.5118 29.3669 37.2542L29.5023 37.0563L29.5856 36.9604L36.3544 29.6667C36.599 29.4027 36.9272 29.2312 37.2835 29.1813L37.5002 29.1667H62.5002ZM56.421 46.7542L56.396 46.7917C55.6536 47.7878 54.6887 48.5966 53.5783 49.1537C52.4678 49.7107 51.2425 50.0005 50.0002 50C48.7501 50.0012 47.5172 49.7084 46.4012 49.1453C45.2851 48.5822 44.317 47.7646 43.5752 46.7584C42.834 47.7642 41.8667 48.5817 40.7513 49.1448C39.636 49.7079 38.4038 50.0009 37.1544 50C36.1773 50 35.2419 49.825 34.3752 49.5042L34.3773 67.7084H37.5002V53.65C37.5003 53.2721 37.6373 52.9071 37.8859 52.6225C38.1345 52.3379 38.4778 52.153 38.8523 52.1021L39.0627 52.0834H48.4294C48.807 52.0834 49.1718 52.2201 49.4563 52.4683C49.7409 52.7165 49.9259 53.0593 49.9773 53.4334L49.9919 53.6459V67.7042H65.621V49.5021C63.997 50.1056 62.2206 50.1636 60.5606 49.6674C58.9007 49.1712 57.4475 48.1478 56.421 46.7521V46.7542ZM46.8648 55.2104H40.6252V67.7063H46.8648V55.2104ZM60.9481 52.0854C61.3257 52.0855 61.6905 52.2222 61.9751 52.4704C62.2596 52.7185 62.4447 53.0614 62.496 53.4354L62.5106 53.6479V60.9438C62.5106 61.3214 62.3739 61.6861 62.1257 61.9707C61.8775 62.2553 61.5347 62.4403 61.1606 62.4917L60.9481 62.5063H53.6544C53.2768 62.5063 52.912 62.3695 52.6274 62.1213C52.3429 61.8732 52.1578 61.5303 52.1065 61.1563L52.0919 60.9438V53.6479C52.0919 53.2704 52.2286 52.9056 52.4768 52.621C52.725 52.3364 53.0678 52.1514 53.4419 52.1L53.6544 52.0854H60.9481ZM59.3856 55.2104H55.2148V59.3813H59.3835L59.3856 55.2104ZM42.0106 39.5875H32.294V42.0146L32.3085 42.3688L32.3669 42.8521L32.4356 43.1771L32.5398 43.5354L32.6523 43.8438L32.7356 44.0396C32.8002 44.1813 32.8731 44.3188 32.9502 44.4521L33.1648 44.7896L33.2773 44.9438L33.546 45.2688L33.8419 45.5688L34.0419 45.7459L34.1294 45.8167C34.7856 46.3375 35.5773 46.6959 36.446 46.8229L36.821 46.8625L37.1544 46.8729C38.3857 46.8732 39.5712 46.4058 40.4711 45.5655C41.3711 44.7251 41.9183 43.5743 42.0023 42.3459L42.0148 42.0125V39.5896L42.0106 39.5875ZM54.8544 39.5875H45.1377V42.0146C45.1377 44.4729 46.9669 46.5084 49.3398 46.8292L49.6648 46.8625L49.9981 46.8729C51.2294 46.8732 52.4149 46.4058 53.3149 45.5655C54.2148 44.7251 54.7621 43.5743 54.846 42.3459L54.8585 42.0125V39.5896L54.8544 39.5875ZM67.7023 39.5875H57.9835L57.9856 42.0146C57.9856 44.4729 59.8148 46.5084 62.1856 46.8292L62.5127 46.8625L62.846 46.8729C64.021 46.8729 65.0981 46.4563 65.9398 45.7604L66.1273 45.5979L66.369 45.3625L66.6731 45.0084C66.7856 44.8646 66.8898 44.7167 66.9856 44.5584L67.2023 44.1709L67.3335 43.8834L67.4544 43.5604L67.5169 43.3604L67.596 43.0438L67.6544 42.7167L67.6919 42.3688L67.7044 42.0146L67.7023 39.5875ZM43.8794 32.2896H38.1815L34.3127 36.4625H42.5981L43.8794 32.2896ZM52.8523 32.2896H47.1481L45.8648 36.4625H54.1356L52.8523 32.2896ZM61.8169 32.2896H56.121L57.4044 36.4625H65.6877L61.8169 32.2896Z" fill="#fff"/></svg>