<svg width="100" height="100" viewBox="0 0 100 100" fill="none" xmlns="http://www.w3.org/2000/svg"><circle cx="50" cy="50" r="50" fill="#49D4CB"/><path d="M71.1344 25.234C71.3607 25.374 71.5475 25.5695 71.6772 25.8019C71.8068 26.0343 71.8749 26.296 71.875 26.5621V73.4371C71.875 73.8515 71.7104 74.249 71.4174 74.542C71.1243 74.835 70.7269 74.9996 70.3125 74.9996H60.9375C60.5231 74.9996 60.1257 74.835 59.8326 74.542C59.5396 74.249 59.375 73.8515 59.375 73.4371V68.7496H56.25V73.4371C56.25 73.8515 56.0854 74.249 55.7924 74.542C55.4993 74.835 55.1019 74.9996 54.6875 74.9996H26.5625C26.1481 74.9996 25.7507 74.835 25.4576 74.542C25.1646 74.249 25 73.8515 25 73.4371V56.2496C25.0002 55.9218 25.1036 55.6024 25.2954 55.3366C25.4872 55.0707 25.7577 54.872 26.0688 54.7684L43.75 48.8746V39.0621C43.75 38.7722 43.8307 38.488 43.983 38.2413C44.1353 37.9946 44.3533 37.7951 44.6125 37.6653L69.6125 25.1653C69.851 25.0459 70.116 24.9896 70.3824 25.0016C70.6488 25.0136 70.9076 25.0936 71.1344 25.234ZM43.75 52.1684L28.125 57.3746V71.8746H43.75V52.1684ZM46.875 71.8746H53.125V67.1871C53.125 66.7727 53.2896 66.3753 53.5826 66.0823C53.8757 65.7893 54.2731 65.6246 54.6875 65.6246H60.9375C61.3519 65.6246 61.7493 65.7893 62.0424 66.0823C62.3354 66.3753 62.5 66.7727 62.5 67.1871V71.8746H68.75V29.0903L46.875 40.0278V71.8746Z" fill="#fff"/><path d="M31.25 59.375H34.375V62.5H31.25V59.375ZM37.5 59.375H40.625V62.5H37.5V59.375ZM31.25 65.625H34.375V68.75H31.25V65.625ZM37.5 65.625H40.625V68.75H37.5V65.625ZM50 53.125H53.125V56.25H50V53.125ZM56.25 53.125H59.375V56.25H56.25V53.125ZM50 59.375H53.125V62.5H50V59.375ZM56.25 59.375H59.375V62.5H56.25V59.375ZM62.5 53.125H65.625V56.25H62.5V53.125ZM62.5 59.375H65.625V62.5H62.5V59.375ZM50 46.875H53.125V50H50V46.875ZM56.25 46.875H59.375V50H56.25V46.875ZM62.5 46.875H65.625V50H62.5V46.875ZM50 40.625H53.125V43.75H50V40.625ZM56.25 40.625H59.375V43.75H56.25V40.625ZM62.5 40.625H65.625V43.75H62.5V40.625ZM62.5 34.375H65.625V37.5H62.5V34.375Z" fill="#fff"/></svg>