<svg width="40" height="40" viewBox="0 0 40 40" fill="none" xmlns="http://www.w3.org/2000/svg"><circle cx="20" cy="20" r="20" fill="#18D863"/><path d="M27.0508 11.9101C26.134 10.984 25.042 10.2497 23.8384 9.75011C22.6349 9.25049 21.3439 8.99552 20.0408 9.00006C14.5808 9.00006 10.1308 13.4501 10.1308 18.9101C10.1308 20.6601 10.5908 22.3601 11.4508 23.8601L10.0508 29.0001L15.3008 27.6201C16.7508 28.4101 18.3808 28.8301 20.0408 28.8301C25.5008 28.8301 29.9508 24.3801 29.9508 18.9201C29.9508 16.2701 28.9208 13.7801 27.0508 11.9101ZM20.0408 27.1501C18.5608 27.1501 17.1108 26.7501 15.8408 26.0001L15.5408 25.8201L12.4208 26.6401L13.2508 23.6001L13.0508 23.2901C12.2285 21.977 11.7919 20.4593 11.7908 18.9101C11.7908 14.3701 15.4908 10.6701 20.0308 10.6701C22.2308 10.6701 24.3008 11.5301 25.8508 13.0901C26.6183 13.854 27.2265 14.7627 27.6402 15.7635C28.0539 16.7642 28.2648 17.8372 28.2608 18.9201C28.2808 23.4601 24.5808 27.1501 20.0408 27.1501ZM24.5608 20.9901C24.3108 20.8701 23.0908 20.2701 22.8708 20.1801C22.6408 20.1001 22.4808 20.0601 22.3108 20.3001C22.1408 20.5501 21.6708 21.1101 21.5308 21.2701C21.3908 21.4401 21.2408 21.4601 20.9908 21.3301C20.7408 21.2101 19.9408 20.9401 19.0008 20.1001C18.2608 19.4401 17.7708 18.6301 17.6208 18.3801C17.4808 18.1301 17.6008 18.0001 17.7308 17.8701C17.8408 17.7601 17.9808 17.5801 18.1008 17.4401C18.2208 17.3001 18.2708 17.1901 18.3508 17.0301C18.4308 16.8601 18.3908 16.7201 18.3308 16.6001C18.2708 16.4801 17.7708 15.2601 17.5708 14.7601C17.3708 14.2801 17.1608 14.3401 17.0108 14.3301H16.5308C16.3608 14.3301 16.1008 14.3901 15.8708 14.6401C15.6508 14.8901 15.0108 15.4901 15.0108 16.7101C15.0108 17.9301 15.9008 19.1101 16.0208 19.2701C16.1408 19.4401 17.7708 21.9401 20.2508 23.0101C20.8408 23.2701 21.3008 23.4201 21.6608 23.5301C22.2508 23.7201 22.7908 23.6901 23.2208 23.6301C23.7008 23.5601 24.6908 23.0301 24.8908 22.4501C25.1008 21.8701 25.1008 21.3801 25.0308 21.2701C24.9608 21.1601 24.8108 21.1101 24.5608 20.9901Z" fill="#fff"/></svg>